<svg xmlns="http://www.w3.org/2000/svg" width="654.547" height="243.92" viewBox="0 0 654.547 243.92"><path d="M2946.35 337.77h-868.78v342.851h694.82v317.453h-694.82v340.306h868.78zm1519.09 1335.84h-484.96l-597.32-741.571v741.471H1314.1L1002.22 656.699l-88.892-325.07-91.426 330.141-307.297 1013.32L0 1829.37 651.363 0h513.767l475.63 1341.53V0h1742.4v472.371l203.17 246.348L4002.83 0h495.23L3898.7 995.527zM4704.05 160.828v-32.406h-52.4V.059h-41.89v128.363h-52.6v32.406zM4909.13 160.828V.058h-37.02V73.86l1.19 49.45h-.48L4833.13.059h-33.87l-39.7 123.25h-.5l1.22-49.45V.06h-37.26v160.769h59.68l25.33-81.86 9.01-34.097h.51l9.24 33.867 25.1 82.09z" style="fill:#110f0d;fill-opacity:1;fill-rule:nonzero;stroke:none" transform="matrix(.13333 0 0 -.13333 0 243.92)"/></svg>