<svg xmlns="http://www.w3.org/2000/svg" width="1338.667" height="247.96" viewBox="0 0 1338.667 247.96"><path d="M9215.47 378.98c-43.7-26.23-109.23-39.3-196.57-39.3-109.62 0-203.38 18.582-281.19 55.781-77.85 37.148-122.71 60.449-212.72 254.68l-.24-.422c-15.83 35.41-37.01 67.98-64.23 97.332-65.07 70.109-160.13 113.637-285.18 130.554v2.532c95.55 14.457 171.09 47.691 226.96 99.39 9.59-21.109 20.81-40.968 33.99-59.328 48.43-67.621 116.76-121.289 204.92-160.98 88.16-39.719 199.75-73.949 334.8-102.668 109.6-21.981 187.82-45.223 234.71-69.711 46.84-24.512 70.29-56.199 70.29-95.059 0-49.031-21.85-86.609-65.54-112.801m-1163.08 9.372c-39.73-32.122-98.46-48.161-176.18-48.161h-357.44v370.098h357.44c77.72 0 136.45-15.648 176.18-46.898 39.69-31.289 59.58-76.481 59.58-135.61 0-60.84-19.89-107.34-59.58-139.429m-533.62 998.778h314.35c157.16 0 235.76-60.84 235.76-182.52 0-121.67-78.6-182.52-235.76-182.52h-314.35zM6166.41 707.762l126.75 403.058 68.45 261.11h5.07l73.51-263.64 121.68-400.528zM9565.77 856.82c-92.94 81.118-248.24 142.793-465.85 185.06q-169.23 32.895-239.49 72.24c-46.87 26.19-70.29 60.4-70.29 102.67 0 50.69 22.23 91.26 66.73 121.68 44.44 30.41 108 45.63 190.61 45.63 98.48 0 183.08-19.89 253.78-59.58 70.67-39.72 132.25-101.82 184.68-186.32l231.13 283.93c-90.54 106.46-188.65 183.33-294.28 230.67-105.67 47.3-233.14 70.98-382.45 70.98-139.81 0-260.93-23.25-363.38-69.71-92.25-41.87-164.38-98.57-216.7-169.84-76.28 132.55-232.79 205.76-469.5 219.67h-892.78V370.359L6631.23 1703.9h-524.04L5638.51 370.609h-475.62V1859.72L4726.88 1704V33.46h1231.66l116.62 377.712h577.97l114.08-377.711h1182.51c199.4 0 350.67 38.848 453.77 116.598 9.92 7.492 18.95 15.57 27.92 23.679 53.56-42.679 111.86-77.547 175.24-104.027C8717.84 23.25 8862.41 0 9040.34 0c127.08 0 241.03 20.281 341.94 60.828 100.87 40.57 179.91 99.703 237.09 177.453 57.2 77.719 85.79 169.86 85.79 276.321 0 147.027-46.46 261.109-139.39 342.218M2940.96 370.609h-867.19v342.219h693.55V1029.7h-693.55v339.68h867.19zM4457.19 1703.9h-484.08l-596.14-740.115V1703.9H1311.69L1000.38 688.949l-88.724-324.48-91.258 329.551L513.66 1705.47l-193.781 58.1L0 1859.48 650.172 33.46H1163l474.75 1339.07V33.46h1739.22v471.501l202.8 245.898L3995.5 33.461h494.32l-598.26 993.699zM9835.29 193.941V161.59H9783V33.46h-41.82v128.13h-52.51v32.351zM10040 193.941V33.461h-37v73.66l1.2 49.359h-.4l-39.66-123.02h-33.81l-39.62 123.02h-.51l1.22-49.359v-73.66h-37.19v160.48h59.57l25.29-81.711 8.99-34.039h.5l9.23 33.797 25.05 81.953z" style="fill:#100f0d;fill-opacity:1;fill-rule:nonzero;stroke:none" transform="matrix(.13333 0 0 -.13333 0 247.96)"/></svg>