<svg xmlns="http://www.w3.org/2000/svg" width="410.52" height="250.413" viewBox="0 0 410.52 250.413"><path d="M2874.12 160.52v-32.36h-52.31V0h-41.83v128.16h-52.52v32.36zM3078.87 160.52V0h-36.96v73.68l1.19 49.371h-.47L3002.99 0h-33.81l-39.63 123.051h-.51l1.22-49.371V0h-37.2v160.52h59.58l25.3-81.73 8.99-34.052h.51l9.23 33.813 25.06 81.969zM1988.92 339.461V1878.08l-676.76-205.85-311.55-1016.582-88.743-324.558-91.277 329.621L513.781 1672.41l-193.828 58.11L0 1826.45 650.324 0h512.946l389.87 1099.65V2.23h1115.32v337.231h-679.54" style="fill:#110f0d;fill-opacity:1;fill-rule:nonzero;stroke:none" transform="matrix(.13333 0 0 -.13333 0 250.413)"/></svg>