<svg xmlns="http://www.w3.org/2000/svg" xmlns:xlink="http://www.w3.org/1999/xlink" version="1.1"
  id="Layer_2_00000045591975780749024340000001019435911075707816_" x="0px" y="0px" viewBox="0 0 284.5 137.1"
  style="enable-background:new 0 0 284.5 137.1;" xml:space="preserve">
  <style type="text/css">
    .st0 {
      fill: #FFFFFF;
    }
  </style>
  <g id="Layer_1-2">
    <path class="st0"
      d="M65.6,137.1c-18,0-34.6-6.8-46.5-19.2C6.8,105.2,0,87.8,0,68.5s6.8-36.8,19.1-49.3C31.2,6.8,47.8,0,65.6,0   h16.7c0.8,0,1.4,0.7,1.4,1.4v26.5c0,0.8-0.7,1.4-1.4,1.4H66.7c-11,0-19.8,3.8-25.9,11C35.1,47.1,32,56.8,32,68.5s3.1,21.5,8.8,28.3   c6.1,7.2,14.8,11,25.9,11h57.4c0.8,0,1.4,0.7,1.4,1.4v26.5c0,0.8-0.7,1.4-1.4,1.4H65.6L65.6,137.1z" />
    <path class="st0"
      d="M137.4,135.7v-26.5c0-0.8,0.7-1.4,1.4-1.4h10.4c11,0,19.8-3.6,25.9-11c5.7-6.8,8.8-16.6,8.8-28.3   s-3.1-21.5-8.8-28.3c-6.1-7.2-14.8-11-25.9-11h-22.2c-0.8,0-1.4,0.7-1.4,1.4v65.1c0,0.8-0.7,1.4-1.4,1.4H97c-0.8,0-1.4-0.7-1.4-1.4   V1.4C95.6,0.6,96.3,0,97,0h53.5c18,0,34.6,6.8,46.5,19.2c12.3,12.7,19.1,30.1,19.1,49.3s-6.8,36.8-19.1,49.3   c-12.1,12.4-28.7,19.2-46.5,19.2h-11.6C138.1,137.1,137.4,136.5,137.4,135.7" />
    <path class="st0"
      d="M251.2,137.1c-0.8,0-1.4-0.7-1.4-1.4l-0.1-69c0-9.9-2.4-17.3-7.1-22.7c-4.7-5.4-11.7-8.6-21.3-9.6l0,0   c-0.4,0-0.8-0.3-1.1-0.7l0,0c-7.5-14.1-15.3-22.8-25.4-28.6c-1.1-0.7-0.8-2.4,0.3-2.6l0,0c7-2,12.4-2.4,19.4-2.4   c19.5,0,37.3,6.8,50.2,19.1c12.7,12.1,19.5,28.7,19.5,46.7l0.4,69.8c0,0.8-0.7,1.5-1.4,1.4H251.2L251.2,137.1z" />
    <path class="st0"
      d="M216.8,107.8c-4,6.1-7.2,16.9-26.6,28.1c-0.6,0.3-0.3,1.1,0.3,1.1h25.4c1.5,0,2.8-1.3,2.8-2.8v-25.9   C218.7,107.4,217.3,107,216.8,107.8" />
  </g>
</svg>