<svg width="221" height="54" viewBox="0 0 63 50" fill="none" xmlns="http://www.w3.org/2000/svg">
  <path
    d="M13.6477 36.299C11.6362 36.299 9.76507 35.938 8.08688 35.2319C6.42039 34.5311 4.97024 33.5595 3.77739 32.3543C2.59037 31.1597 1.6548 29.7368 0.994049 28.1229C0.333299 26.5248 0 24.778 0 22.9358C0 21.1996 0.333299 19.506 0.994049 17.9079C1.6548 16.2992 2.59622 14.8658 3.79493 13.6446C4.99948 12.4129 6.45547 11.4201 8.11027 10.6874C9.79431 9.94412 11.6596 9.56717 13.6536 9.56717C15.3961 9.56717 17.0918 9.90696 18.694 10.5706C20.3312 11.2502 21.7287 12.2855 22.8397 13.6393C23.366 14.2817 23.2198 15.1949 22.5123 15.6728C21.8048 16.1506 20.799 16.0179 20.2728 15.3754C19.4775 14.4039 18.5244 13.6977 17.3666 13.2146C16.1855 12.7261 14.94 12.4766 13.6594 12.4766C12.1566 12.4766 10.7591 12.7527 9.51363 13.3049C8.23891 13.8676 7.12207 14.6322 6.19234 15.5772C5.25676 16.5329 4.52 17.6584 3.99374 18.9326C3.46748 20.2068 3.20435 21.5554 3.20435 22.9411C3.20435 24.4383 3.47332 25.8399 3.99374 27.1141C4.51415 28.383 5.24507 29.4979 6.1631 30.4217C7.06944 31.3402 8.16874 32.0729 9.44347 32.6091C10.6948 33.1401 12.1157 33.4055 13.6536 33.4055C15.3259 33.4055 16.8287 33.1082 18.1151 32.5242C19.4132 31.9349 20.571 31.0641 21.5475 29.9439C22.0971 29.3121 23.1029 29.2112 23.7929 29.705C24.4828 30.2041 24.5998 31.1172 24.056 31.7437C22.7813 33.2038 21.2668 34.3399 19.5477 35.1204C17.811 35.9061 15.8288 36.3096 13.6536 36.3096L13.6477 36.299Z"
    fill="white"></path>
  <path
    d="M50.644 38.067C50.4686 38.067 50.2932 38.067 50.1119 38.0564C45.9661 37.9024 42.6039 35.9274 41.1245 32.7737C40.7796 32.0357 41.1538 31.1809 41.9666 30.8677C42.7793 30.5544 43.7208 30.8942 44.0658 31.6322C45.0481 33.7293 47.3578 35.046 50.2406 35.1522C53.2987 35.269 56.1464 34.0054 57.3042 32.0145C58.2924 30.3155 58.0468 28.0644 56.7253 26.6681C55.4038 25.2718 53.4332 24.6028 51.3516 23.8967C49.4453 23.249 47.4748 22.58 45.7907 21.3058C43.8377 19.8352 42.8612 17.8177 43.0308 15.6303C43.2179 13.2358 44.7791 10.99 47.2116 9.62555C51.7024 7.10898 57.5205 7.96908 61.0465 11.6802C61.6253 12.2855 61.5493 13.204 60.8827 13.7296C60.2103 14.2552 59.2045 14.1862 58.6257 13.5809C56.0938 10.9157 52.0942 10.3104 48.8957 12.0996C47.3403 12.9703 46.3404 14.3667 46.2293 15.8373C46.1591 16.708 46.3872 17.9716 47.849 19.0759C49.1179 20.0369 50.7551 20.5891 52.4859 21.1784C54.86 21.9854 57.31 22.8189 59.1695 24.778C61.3505 27.0822 61.754 30.6182 60.1518 33.3736C58.4736 36.2618 54.7839 38.0723 50.6557 38.0723L50.644 38.067Z"
    fill="white"></path>
  <path
    d="M29.7221 42.6276C29.1666 42.6276 28.6111 42.6063 28.0497 42.5585C22.2024 42.0595 17.811 39.0969 16.2966 34.6319C16.0393 33.8674 16.5129 33.0498 17.3549 32.8161C18.1969 32.5772 19.0974 33.0126 19.3547 33.7771C20.4716 37.0794 23.8338 39.2775 28.3479 39.665C33.3942 40.0951 38.2183 38.1678 40.0719 34.9823C41.6565 32.2587 41.2589 28.6431 39.1246 26.392C37.0663 24.2152 34.09 23.2065 30.9442 22.134C28.2134 21.2049 25.3833 20.2493 23.0093 18.4547C20.3371 16.4372 18.998 13.6871 19.2261 10.7033C19.4834 7.40628 21.641 4.31632 24.9974 2.43155C31.2658 -1.08314 39.3936 0.127354 44.317 5.30914C44.8959 5.91439 44.8199 6.83288 44.1533 7.3585C43.4867 7.88411 42.4751 7.81509 41.8962 7.20984C37.9434 3.04742 31.6868 2.10238 26.6814 4.90564C24.1963 6.29665 22.6058 8.54245 22.4187 10.905C22.2609 12.9279 23.1964 14.8126 25.0559 16.2143C27.0147 17.6902 29.4648 18.5238 32.061 19.4051C35.4466 20.5572 38.955 21.7464 41.5512 24.4913C44.5509 27.6662 45.1064 32.5348 42.902 36.3361C40.6741 40.1641 35.4057 42.6276 29.7162 42.6276H29.7221Z"
    fill="white"></path>
</svg>