<?xml version="1.0" standalone="no"?>
<!DOCTYPE svg PUBLIC "-//W3C//DTD SVG 20010904//EN" "http://www.w3.org/TR/2001/REC-SVG-20010904/DTD/svg10.dtd">
<svg version="1.0" xmlns="http://www.w3.org/2000/svg" width="297.572931pt" height="105.493417pt"
  viewBox="0 0 297.572931 105.493417" preserveAspectRatio="xMidYMid meet">
  <metadata>
    Created by potrace 1.12, written by Peter Selinger 2001-2015
  </metadata>
  <g transform="translate(-1.262251,166.761738) scale(0.100000,-0.100000)" fill="white" stroke="none">
    <path d="M1441 1654 c-62 -19 -68 -29 -32 -50 39 -23 40 -35 3 -28 -28 6 -28
4 -55 -85 -15 -50 -31 -91 -36 -91 -4 0 -25 14 -46 30 -21 17 -63 38 -94 47
-50 14 -72 15 -206 4 -463 -38 -666 -19 -885 87 l-77 37 10 -28 c29 -85 128
-181 222 -216 69 -26 218 -50 404 -65 86 -7 149 -16 141 -19 -60 -26 -364 -34
-517 -14 -90 12 -92 12 -75 -6 65 -72 183 -117 309 -117 113 0 358 28 403 47
32 13 42 12 100 -6 81 -26 156 -36 163 -24 4 6 -3 34 -14 64 -17 43 -20 70
-17 129 3 41 11 86 18 100 l14 25 7 -40 c4 -22 19 -65 33 -95 14 -30 26 -62
26 -71 0 -20 20 -39 42 -39 18 0 29 28 46 120 8 37 11 41 17 25 5 -11 22 -42
38 -69 30 -49 37 -97 18 -120 -12 -14 3 -159 21 -211 6 -16 19 -70 29 -120 10
-49 21 -100 24 -112 6 -28 -11 -31 -20 -4 -3 10 -27 43 -53 73 l-48 55 -29
-54 c-16 -30 -51 -79 -79 -108 l-51 -53 135 -22 c149 -24 208 -23 367 5 l102
18 -47 52 c-26 28 -59 73 -72 98 -14 26 -28 47 -31 47 -4 0 -33 -28 -65 -62
-42 -46 -56 -56 -50 -38 4 14 15 64 25 111 9 47 27 101 39 121 13 21 22 52 22
76 0 23 8 57 17 77 16 34 16 38 0 82 l-17 46 37 63 c21 34 41 60 45 58 4 -3
17 -37 29 -75 32 -104 61 -104 99 -1 12 32 30 66 40 77 10 11 23 31 28 45 l10
25 12 -30 c19 -47 8 -143 -23 -206 -15 -31 -27 -61 -27 -67 0 -23 201 -6 220
18 3 4 68 -2 145 -12 88 -12 185 -17 261 -16 116 3 123 4 195 40 41 20 86 49
99 63 l25 27 -85 -9 c-175 -17 -530 -6 -530 16 0 4 57 11 128 14 252 13 421
53 525 124 43 30 97 100 120 155 l15 36 -76 -38 c-95 -47 -204 -83 -302 -101
-101 -19 -426 -16 -598 5 -74 9 -151 16 -173 16 -54 0 -115 -27 -144 -64 -31
-40 -40 -30 -60 63 -19 91 -21 94 -54 87 -25 -6 -25 -5 8 22 l34 29 -57 22
c-65 24 -65 24 -125 5z m100 -103 l24 -19 -28 -57 c-15 -31 -31 -54 -35 -51
-4 3 -19 28 -32 56 l-24 52 24 19 c31 24 42 24 71 0z" />
    <path d="M762 1119 c-51 -15 -144 -38 -207 -51 -63 -13 -115 -26 -115 -30 0
-4 17 -16 38 -27 155 -79 374 -71 517 20 l49 31 -27 14 c-14 8 -32 24 -38 35
-11 21 -39 22 -96 4 -18 -6 -21 -4 -16 14 6 25 10 26 -105 -10z" />
    <path d="M2175 1123 c4 -10 10 -28 13 -41 l5 -23 -34 20 c-43 27 -71 26 -95 0
-10 -12 -32 -27 -47 -34 l-28 -12 69 -31 c85 -40 184 -54 287 -41 84 11 172
40 207 69 l23 19 -27 1 c-35 0 -270 54 -327 74 -54 20 -55 20 -46 -1z" />
    <path d="M1033 996 c-23 -30 -69 -74 -103 -98 l-62 -43 62 -3 c76 -4 158 19
201 55 33 28 89 100 89 114 0 11 -68 29 -110 29 -31 0 -40 -7 -77 -54z" />
    <path d="M1815 1010 c-17 -19 -17 -21 8 -53 58 -76 181 -126 274 -112 l45 7
-65 44 c-36 24 -83 64 -103 89 -36 43 -41 45 -90 45 -38 0 -55 -5 -69 -20z" />
    <path d="M1260 943 c0 -27 -4 -64 -10 -82 -5 -19 -8 -36 -7 -37 1 -2 21 15 44
37 l42 40 -17 33 c-9 19 -25 39 -34 45 -16 10 -18 6 -18 -36z" />
    <path d="M1713 933 c-3 -10 -12 -25 -20 -34 -12 -15 -10 -20 23 -48 21 -17 39
-29 40 -28 1 1 -3 30 -9 65 -11 62 -22 77 -34 45z" />
  </g>
</svg>