<?xml version="1.0" standalone="no"?>

<!DOCTYPE svg PUBLIC "-//W3C//DTD SVG 20010904//EN" "http://www.w3.org/TR/2001/REC-SVG-20010904/DTD/svg10.dtd">

<svg version="1.0" xmlns="http://www.w3.org/2000/svg" width="1497.000000pt" height="873.000000pt"
  viewBox="0 0 1497.000000 873.000000" preserveAspectRatio="xMidYMid meet">

  <path fill="white" stroke="none" d="
M156 871

C140 868 131 861 124 846

C120 838 120 838 119 821

C119 802 120 795 127 779

C133 767 139 759 147 751

C155 744 169 737 173 737

L176 738

L176 740

C178 756 190 766 207 767

C229 768 250 757 272 735

C291 714 299 700 324 639

C330 622 337 606 339 603

C344 592 353 586 364 585

C373 585 374 585 374 593

C374 600 371 609 352 656

C333 705 331 711 330 724

C330 734 330 735 332 738

C333 740 336 743 338 744

C341 746 342 746 350 746

C363 745 371 741 384 729

C394 718 401 708 409 692

C420 668 427 644 428 619

C429 596 424 580 414 568

C405 558 394 555 374 555

C352 555 334 559 314 569

C283 584 266 609 264 639

C264 648 264 649 267 654

C269 659 270 660 275 662

C278 664 281 665 281 666

C281 668 273 683 267 691

C260 700 252 708 243 714

C234 719 226 722 217 723

C207 723 200 721 193 715

C182 705 177 689 179 667

C183 628 205 589 241 558

C277 527 323 508 373 504

C389 503 410 504 422 508

C456 517 476 545 481 586

C483 601 482 630 479 646

C465 724 419 798 368 822

C355 828 349 829 335 829

C321 828 319 828 311 821

C301 812 298 803 297 782

L297 767

L296 767

C296 767 293 772 289 779

C272 812 251 837 227 853

C211 863 198 868 180 871

C169 873 165 873 156 871

Z

M183 856

C187 855 191 850 191 848

C190 845 187 844 174 841

C160 838 155 836 150 829

C146 825 142 814 140 806

L140 802

L139 802

L138 802

L137 807

C136 814 136 828 138 834

C141 844 154 855 167 857

C173 858 177 858 183 856

Z

M221 703

C227 698 226 693 216 683

C208 674 207 665 210 642

C211 636 211 631 211 630

L210 630

L206 634

C197 644 192 660 192 676

C192 684 192 686 194 691

C198 700 206 706 213 706

C217 706 219 705 221 703

Z

M457 563

C458 563 459 561 460 560

C463 551 450 531 439 528

C434 527 434 527 432 528

L431 529

L432 531

C433 532 436 536 439 540

C443 545 446 549 447 553

C448 556 449 560 451 561

C454 564 455 564 457 563

Z

M510 773

C498 770 485 754 481 737

C479 730 479 704 481 694

C483 684 489 665 494 654

C509 623 531 598 556 587

C569 580 579 578 592 578

C604 577 610 579 616 585

C630 597 632 619 621 641

C616 652 610 659 602 668

C586 683 561 690 540 686

C535 685 534 685 533 687

C530 690 530 695 533 699

C536 704 541 705 553 706

C562 706 565 706 573 704

C602 696 632 672 645 647

C647 644 653 628 659 611

C688 533 698 510 712 489

C721 475 730 469 741 469

C748 469 751 471 750 479

C750 487 748 492 736 518

C714 563 698 603 691 630

C687 647 689 659 696 661

C700 662 709 660 714 658

C723 654 733 643 739 630

C741 627 745 618 748 610

C759 580 770 560 780 550

C787 544 791 542 798 542

C804 542 806 544 807 551

C808 558 805 569 796 595

C785 628 784 635 791 642

C798 649 814 643 822 630

C824 628 827 620 829 613

C841 580 860 552 885 535

C898 525 918 519 934 519

C945 519 951 521 957 526

C964 532 967 537 968 548

C971 573 960 595 939 606

C932 609 930 609 924 609

C911 610 909 605 916 592

C919 586 920 584 920 579

C920 572 918 569 913 568

C903 565 891 573 884 587

C879 597 878 603 878 614

C879 625 880 629 885 634

C891 640 898 642 908 642

C913 642 919 642 922 641

C949 634 977 611 989 585

C1003 554 1011 540 1025 524

C1042 504 1066 492 1089 492

C1096 492 1097 492 1105 496

C1109 498 1114 500 1115 500

C1118 500 1122 498 1130 491

C1143 480 1152 477 1158 482

C1160 484 1160 486 1160 490

C1160 497 1157 505 1146 530

C1136 553 1133 561 1132 569

C1131 575 1132 581 1135 584

C1141 589 1161 581 1170 569

C1172 567 1174 561 1176 555

C1183 533 1198 508 1213 492

C1228 476 1240 468 1257 463

C1285 454 1304 459 1313 477

C1316 483 1316 484 1316 494

C1316 510 1313 520 1304 532

C1294 545 1274 553 1264 548

C1257 545 1257 544 1262 534

C1270 519 1270 512 1261 508

C1257 507 1250 508 1244 512

C1230 521 1221 546 1226 564

C1228 570 1235 577 1241 580

C1248 583 1261 583 1271 581

C1287 576 1306 565 1319 550

C1328 540 1331 535 1341 511

C1358 464 1375 441 1392 438

C1395 438 1396 438 1398 440

C1401 443 1401 444 1401 449

C1401 458 1399 466 1390 493

C1383 514 1382 517 1381 526

C1381 536 1381 536 1384 539

C1387 542 1387 542 1393 542

C1405 540 1418 531 1424 518

C1426 514 1430 504 1434 494

C1446 463 1453 448 1462 436

C1472 423 1487 418 1494 426

C1496 428 1496 429 1496 435

C1496 443 1496 444 1481 482

C1468 517 1461 537 1447 582

C1431 635 1423 655 1409 680

C1387 718 1359 736 1324 734

C1312 733 1305 731 1298 724

C1285 712 1282 688 1289 663

C1293 651 1304 636 1310 632

L1313 631

L1314 632

C1314 633 1315 635 1315 638

C1316 645 1321 652 1328 655

C1333 658 1335 658 1342 658

C1367 658 1394 638 1409 609

C1415 597 1417 589 1417 580

L1418 573

L1415 572

C1413 572 1412 573 1402 591

C1389 614 1371 627 1350 629

C1340 629 1334 627 1329 622

C1323 616 1321 611 1321 599

C1321 593 1321 588 1320 588

L1319 587

L1312 596

C1302 608 1285 625 1275 633

C1258 645 1241 653 1223 655

C1196 659 1179 647 1171 620

L1169 613

L1167 616

C1166 617 1164 621 1162 625

C1148 650 1130 668 1114 674

C1099 679 1088 675 1081 664

C1079 659 1078 658 1078 642

L1078 626

L1072 635

C1061 656 1044 676 1031 684

C1023 689 1013 692 1004 692

C998 692 997 692 993 690

C983 684 979 673 977 654

C977 648 976 643 976 642

L975 642

L968 652

C957 666 933 689 924 696

C907 707 891 713 875 715

C849 718 832 707 824 680

L822 673

L821 674

C820 675 818 680 815 685

C800 709 781 728 764 734

C757 737 745 737 740 735

C732 731 727 721 726 706

L726 696

L725 696

C725 696 723 698 721 701

C713 714 696 734 685 742

C674 750 669 751 655 752

C642 752 641 752 638 750

C636 749 633 745 632 743

C629 738 629 737 628 723

L628 708

L622 715

C614 725 593 746 583 753

C573 760 560 767 551 771

C544 773 542 773 529 774

C520 774 512 774 510 773

Z

M1341 720

L1342 720

L1342 718

C1342 718 1340 716 1337 714

C1324 707 1321 705 1317 700

C1309 693 1307 688 1306 675

L1305 664

L1303 668

C1300 675 1299 682 1299 691

C1300 701 1302 706 1308 712

C1313 717 1318 720 1325 721

C1329 722 1338 721 1341 720

Z

M562 659

C570 656 579 646 581 636

C582 632 581 627 577 624

C575 622 574 622 569 622

C559 622 549 628 544 638

C541 643 541 653 544 656

C547 660 553 661 562 659

Z

M555 604

C558 602 564 600 569 599

C578 596 583 592 584 590

L584 588

L582 586

C576 583 557 590 544 602

C537 609 532 615 532 617

L532 618

L541 612

C546 609 552 605 555 604

Z

M1061 604

C1069 601 1077 591 1082 582

C1085 576 1086 573 1086 566

C1086 554 1082 549 1071 549

C1060 549 1047 558 1040 574

C1036 582 1036 583 1036 591

C1036 597 1036 599 1038 602

C1043 609 1050 609 1061 604

Z

M775 578

C779 572 784 567 784 565

C789 557 780 554 775 562

C771 567 765 582 764 586

L764 591

L765 589

C766 588 770 583 775 578

Z

M697 554

C714 519 713 521 726 503

C731 495 733 490 731 487

L729 486

L726 487

C724 488 721 491 719 493

C712 503 695 541 686 567

C683 576 683 579 685 579

C685 579 691 568 697 554

Z

M956 558

C958 557 958 555 958 551

C958 545 958 544 955 540

C952 535 946 530 942 528

C936 526 935 529 940 534

C944 538 946 544 946 548

C946 554 950 560 954 560

C954 560 956 559 956 558

Z

M1035 541

C1040 537 1046 531 1050 529

C1059 524 1063 520 1063 516

C1063 513 1062 512 1061 510

C1058 509 1058 509 1053 511

C1043 516 1025 538 1025 546

L1025 549

L1025 549

C1026 549 1030 545 1035 541

Z

M1307 497

C1310 495 1310 487 1306 480

C1303 474 1299 470 1293 467

L1289 466

L1288 467

L1287 468

L1288 470

C1294 478 1296 482 1297 487

C1298 497 1302 502 1307 497

Z

M1475 477

C1481 464 1490 444 1491 441

C1491 437 1489 433 1486 433

C1481 433 1480 436 1475 460

C1472 472 1470 483 1470 484

L1470 486

L1471 486

C1471 486 1473 482 1475 477

Z

M1389 475

C1393 464 1397 453 1397 451

C1397 449 1393 446 1392 447

C1391 447 1390 449 1389 451

C1388 455 1384 479 1384 482

L1384 484

L1385 483

C1385 483 1387 479 1389 475

Z

M35 551

C21 547 9 535 4 519

C0 506 0 496 1 483

C5 457 17 434 34 419

C40 414 53 407 59 405

L63 405

L63 407

C64 408 64 410 64 412

C64 413 65 416 66 419

C71 433 87 441 104 438

C120 436 134 427 149 412

C171 390 184 365 209 305

C229 257 229 256 238 250

C247 244 262 241 265 246

C267 248 265 258 258 280

C249 308 247 317 249 322

C251 329 257 331 270 329

C298 323 322 299 329 270

C332 261 332 242 329 235

C325 223 314 215 298 211

C287 209 258 210 241 213

C211 220 190 231 170 250

C155 266 148 280 148 296

C148 302 148 304 150 309

C153 315 158 319 162 319

L164 319

L164 320

C165 322 163 330 161 336

C155 352 140 367 122 376

C108 383 88 385 77 380

C67 376 58 363 56 349

C54 340 55 320 58 310

C69 274 95 239 134 210

C181 174 240 154 304 151

C349 150 378 162 391 187

C397 199 398 207 398 226

C397 254 390 276 376 296

C363 315 349 326 328 335

C311 342 306 345 304 349

C297 364 325 392 347 393

C351 393 357 393 360 392

C368 390 379 384 385 379

C389 374 390 373 392 364

C404 316 434 275 470 260

C482 255 491 254 504 254

C517 254 521 255 528 263

C540 276 541 296 530 319

C525 329 524 330 514 341

C505 349 501 352 495 355

C480 362 464 365 450 362

C444 361 444 361 442 363

C440 366 440 369 442 372

C444 377 449 380 457 381

C486 386 524 366 546 336

C553 327 555 323 560 312

C572 281 595 251 617 238

C630 230 652 225 662 227

C665 227 670 229 673 231

C682 237 684 237 700 224

C704 220 708 217 708 217

C708 217 711 217 714 216

C721 215 725 216 726 220

C729 226 726 234 714 260

C697 296 691 314 691 324

C691 329 691 330 693 333

C695 335 697 336 699 336

C707 336 720 325 733 307

C740 299 741 296 745 284

C760 243 772 221 784 210

C792 202 799 200 804 202

C807 204 808 205 809 208

C811 215 809 225 800 253

C789 283 788 287 790 294

C792 301 795 304 802 304

C809 304 814 302 819 296

C827 289 832 281 840 264

C851 241 862 225 878 209

C888 199 897 192 908 186

C920 180 930 178 944 178

C955 178 956 178 962 181

C978 189 985 209 982 239

C981 248 977 268 975 272

L975 274

L977 274

C981 274 992 268 997 263

C1006 255 1011 248 1017 230

C1035 182 1050 156 1062 156

C1067 156 1069 158 1070 168

C1072 185 1077 185 1092 169

C1120 140 1152 133 1163 154

C1165 159 1165 161 1165 168

C1165 178 1164 184 1157 202

C1152 218 1150 227 1152 234

C1154 241 1160 244 1171 241

C1175 240 1177 238 1183 232

C1192 223 1196 217 1202 201

C1208 188 1216 173 1224 162

C1230 153 1247 136 1254 131

C1267 122 1285 116 1299 116

C1306 116 1307 116 1314 120

C1322 124 1326 125 1330 123

C1331 123 1335 119 1340 116

C1349 108 1355 105 1361 105

C1369 104 1372 112 1368 124

C1368 127 1363 139 1358 150

C1346 176 1343 183 1342 191

C1340 199 1341 204 1345 207

C1351 213 1366 208 1376 197

C1387 186 1389 181 1405 140

C1440 44 1451 21 1469 7

C1481 -3 1495 -1 1495 10

C1495 16 1491 27 1479 53

C1454 105 1439 143 1435 165

C1432 176 1433 187 1436 190

C1438 193 1439 193 1445 193

C1457 193 1465 188 1477 174

C1480 169 1484 165 1485 164

C1488 164 1494 166 1495 169

C1497 171 1497 171 1494 179

C1489 189 1473 219 1465 233

C1458 244 1447 259 1437 267

C1422 281 1413 284 1396 284

C1385 284 1385 284 1381 281

C1376 277 1373 270 1372 260

L1372 252

L1371 252

C1371 252 1367 256 1364 262

C1347 287 1329 300 1312 300

C1301 300 1294 295 1290 286

C1288 282 1288 279 1288 266

L1288 251

L1287 251

C1287 251 1284 255 1281 261

C1273 275 1264 287 1255 296

C1241 311 1228 317 1213 316

C1205 316 1204 315 1200 312

C1193 306 1189 297 1186 278

L1186 273

L1180 281

C1166 304 1147 323 1132 330

C1120 335 1106 335 1100 331

C1095 327 1091 318 1090 307

C1090 295 1092 284 1101 257

C1106 242 1108 232 1109 228

C1109 222 1109 221 1107 219

C1105 217 1103 216 1099 216

C1086 216 1071 230 1061 252

C1056 263 1053 275 1052 296

C1050 318 1048 325 1044 333

C1038 344 1028 350 1015 351

C1007 351 1006 351 1003 349

C994 343 993 336 995 314

C996 306 997 300 997 299

L996 299

L991 304

C982 311 975 315 958 319

C953 321 952 322 948 327

C941 335 926 350 918 357

C909 364 897 370 887 373

C881 375 877 375 867 375

C855 375 854 375 848 372

C845 371 841 368 839 367

C833 361 827 349 825 339

L825 334

L824 334

C824 334 821 338 818 343

C808 361 793 379 781 387

C769 395 752 398 742 394

C735 391 730 381 729 369

C729 365 728 362 728 361

L727 360

L724 366

C709 392 691 409 675 410

C671 410 669 410 667 408

C665 407 664 406 663 406

L662 406

L662 409

C660 415 647 445 641 458

C631 478 622 491 610 503

C594 519 581 526 561 528

C547 530 536 529 529 525

C521 522 514 514 511 508

C507 499 506 477 509 464

C511 455 520 439 526 432

C530 429 533 426 534 426

L536 426

L537 432

C539 443 548 451 559 452

C581 454 597 447 616 428

C632 411 643 388 643 372

L644 366

L641 365

C639 365 636 369 629 382

C620 399 607 412 593 419

C587 422 585 422 577 423

C570 423 568 423 563 421

C557 418 550 411 547 404

C544 396 543 386 543 381

L544 377

L543 377

C543 377 538 382 533 389

C509 421 479 443 452 449

C442 451 427 450 419 448

C407 444 397 433 392 416

L390 411

L389 411

C389 411 387 413 386 415

C382 422 368 440 360 450

C342 471 321 486 303 490

C296 492 285 492 280 490

C274 488 267 482 264 476

C260 467 259 461 257 428

C256 387 254 380 247 374

C241 369 231 369 225 374

C221 378 219 382 212 398

C201 424 186 451 172 472

C142 514 109 540 74 549

C66 551 41 553 35 551

Z

M70 532

C74 530 77 528 77 526

L77 525

L74 524

C72 524 68 523 64 522

C55 521 46 519 41 516

C32 511 28 500 28 483

L28 473

L27 474

C25 475 20 486 19 492

C17 499 18 511 21 517

C24 522 31 528 37 531

C48 535 64 536 70 532

Z

M554 518

C556 517 558 516 558 515

L558 514

L554 511

C552 510 547 507 543 504

C539 501 533 497 530 493

C523 486 521 480 521 470

C521 466 520 462 520 461

L519 459

L517 464

C512 475 512 489 516 499

C522 512 542 522 554 518

Z

M97 360

C101 357 103 353 102 350

C101 348 99 344 96 341

C88 331 87 327 87 317

C87 312 88 303 89 297

C90 292 91 287 91 287

L91 286

L90 286

C87 286 75 309 72 321

C68 334 70 346 77 354

C84 362 91 364 97 360

Z

M627 340

C647 330 660 298 648 287

C646 285 645 285 639 284

C634 284 632 284 627 287

C618 291 611 299 606 309

C602 318 601 329 603 335

C607 343 616 345 627 340

Z

M476 333

C488 325 494 313 490 304

C489 300 487 299 484 298

C474 294 459 302 453 314

C447 327 453 337 465 336

C469 335 473 334 476 333

Z

M911 291

C917 288 928 277 932 269

C937 258 938 249 935 242

C933 237 929 235 922 235

C912 235 902 241 895 252

C889 260 886 269 886 277

C885 285 887 288 892 292

C896 295 903 294 911 291

Z

M602 275

C607 270 612 266 618 264

C626 259 629 257 631 253

C634 247 626 242 619 245

C609 251 588 277 590 283

L591 284

L593 283

C594 282 598 278 602 275

Z

M469 275

C473 273 479 272 483 271

C488 271 490 270 492 268

C494 266 495 264 495 264

L494 263

L488 262

C482 262 480 262 475 264

C468 268 459 275 459 277

L459 278

L461 278

C462 277 466 276 469 275

Z

M777 242

C780 238 785 232 788 229

C793 223 794 222 793 218

C792 214 786 214 782 219

C778 224 770 239 769 245

L769 250

L770 250

C771 250 774 246 777 242

Z

M1270 229

C1286 221 1297 203 1296 186

C1295 180 1295 179 1292 176

C1288 173 1287 173 1283 173

C1269 173 1257 182 1250 197

C1246 204 1246 206 1245 213

C1244 226 1249 232 1260 232

C1263 232 1267 230 1270 229

Z

M890 222

C896 217 901 213 911 208

C921 202 925 197 923 194

C921 191 914 191 907 195

C897 200 881 219 881 226

L881 228

L882 228

C883 228 886 225 890 222

Z

M384 210

C389 205 386 194 377 185

C374 182 370 179 368 178

C363 175 357 176 354 178

L352 180

L359 187

C364 193 366 196 368 201

C371 209 374 212 379 212

C381 212 383 211 384 210

Z

M1152 180

C1153 179 1155 176 1156 174

C1161 160 1151 149 1137 151

C1131 151 1123 156 1123 158

L1123 159

L1130 159

C1140 158 1141 159 1142 170

C1143 176 1143 178 1145 179

C1148 181 1149 181 1152 180

Z

M1241 166

C1249 159 1255 155 1264 151

C1272 147 1276 142 1276 138

C1276 135 1273 132 1270 132

C1263 132 1241 151 1237 161

C1235 164 1234 168 1234 169

L1234 171

L1235 171

C1235 171 1238 169 1241 166

Z

M1447 72

C1458 51 1465 39 1469 32

C1477 22 1479 16 1477 14

C1470 5 1454 33 1435 86

C1432 93 1430 100 1430 101

L1429 104

L1430 104

C1431 104 1438 89 1447 72

Z

M789 523

C769 513 769 483 791 464

C807 450 830 447 843 459

C849 464 851 468 851 480

C851 489 851 490 848 496

C844 504 833 516 826 519

C814 526 799 527 789 523

Z

M788 489

C790 484 797 478 803 475

C805 474 808 472 809 470

C812 466 808 460 803 462

C794 465 779 486 781 492

L782 493

L784 493

C785 493 787 491 788 489

Z

M843 485

C850 482 850 473 844 465

C840 460 835 457 830 457

C827 457 825 457 823 459

C817 466 823 480 834 484

C838 486 839 486 843 485

Z

M798 186

C780 182 773 167 779 144

C781 133 786 125 791 120

C795 116 795 116 807 116

L819 116

L818 106

C818 94 815 87 808 81

C799 72 787 68 771 68

C765 68 761 68 760 67

C759 65 761 61 763 60

C766 59 783 61 792 64

C813 70 823 84 823 106

L823 116

L826 116

C833 114 842 114 845 115

C857 122 854 154 840 172

C836 177 828 182 822 184

C816 186 804 187 798 186

Z

M796 141

C798 138 800 134 801 133

C806 131 806 126 803 122

C800 119 798 119 795 123

C791 127 789 134 789 141

L789 147

L791 147

C793 147 794 145 796 141

Z

" />

  <path fill="#222222" stroke="none" d="
M132 859

L130 857

L132 859

C134 860 135 861 135 862

L135 862

L135 862

C134 862 133 861 132 859

Z

M170 857

L171 857

L172 857

L172 858

L170 858

L169 858

L170 857

Z

M187 854

C187 853 188 853 189 852

L191 851

L189 852

C188 853 188 854 187 854

L187 854

L187 854

Z

M152 832

L150 830

L152 832

C154 833 155 834 155 835

L155 835

L155 835

C154 835 153 834 152 832

Z

M347 828

L348 828

L349 828

L349 829

L347 829

L346 829

L347 828

Z

M256 827

C256 826 257 826 258 825

L260 824

L258 825

C257 826 257 827 256 827

L256 827

L256 827

Z

M119 804

L119 803

L120 804

L120 805

L120 806

L119 806

L119 804

Z

M404 796

C405 794 407 793 407 793

L407 793

L405 796

C404 797 402 798 402 798

L402 798

L404 796

Z

M297 785

L297 783

L298 784

C298 784 298 786 298 786

L297 788

L297 785

Z

M183 757

L182 756

L183 757

C184 758 185 758 185 759

L185 759

L185 759

C184 759 184 758 183 757

Z

M346 746

C347 746 349 746 350 746

L352 747

L348 747

L345 747

L346 746

Z

M595 744

C595 743 596 743 597 742

L599 741

L597 742

C596 743 596 744 595 744

L595 744

L595 744

Z

M334 741

L333 740

L334 741

C335 742 336 742 336 743

L336 743

L336 743

C335 743 335 742 334 741

Z

M749 736

C750 736 752 736 752 736

L754 737

L751 737

L748 737

L749 736

Z

M628 721

L628 708

L629 714

C629 718 629 724 629 728

L628 735

L628 721

Z

M329 728

L329 723

L330 725

C330 727 330 729 330 730

L329 733

L329 728

Z

M382 731

C382 730 383 730 384 729

L386 728

L384 729

C383 730 383 731 382 731

L382 731

L382 731

Z

M610 729

C610 728 611 728 612 727

L614 726

L612 727

C611 728 611 729 610 729

L610 729

L610 729

Z

M479 726

L479 724

L480 725

C480 725 480 727 480 727

L479 729

L479 726

Z

M870 715

L871 715

L872 715

L872 716

L870 716

L869 716

L870 715

Z

M1387 709

C1389 707 1391 705 1391 705

L1391 705

L1388 709

C1385 711 1383 713 1383 713

L1383 713

L1387 709

Z

M479 709

L479 707

L480 708

C480 708 480 710 480 710

L479 712

L479 709

Z

M213 706

L214 706

L215 706

L215 707

L213 707

L212 707

L213 706

Z

M252 707

C252 706 253 706 254 705

L256 704

L254 705

C253 706 253 707 252 707

L252 707

L252 707

Z

M552 706

C553 706 555 706 556 706

L559 707

L554 707

L550 707

L552 706

Z

M837 704

L836 703

L837 704

C838 705 839 705 839 706

L839 706

L839 706

C838 706 838 705 837 704

Z

M221 704

C221 703 222 703 223 702

L225 701

L223 702

C222 703 222 704 221 704

L221 704

L221 704

Z

M199 700

L198 698

L200 699

C201 700 202 701 202 702

L202 702

L202 702

C201 702 200 701 199 700

Z

M1315 700

L1314 698

L1316 699

C1317 700 1318 701 1318 702

L1318 702

L1318 702

C1317 702 1316 701 1315 700

Z

M260 699

C260 698 261 698 262 697

L264 696

L262 697

C261 698 261 699 260 699

L260 699

L260 699

Z

M1285 690

L1285 685

L1286 687

C1286 689 1286 691 1286 693

L1285 696

L1285 690

Z

M1003 692

C1003 692 1005 692 1005 692

L1007 693

L1004 693

L1002 693

L1003 692

Z

M1298 689

L1298 686

L1299 687

C1299 688 1299 690 1299 690

L1298 692

L1298 689

Z

M987 686

L986 684

L988 685

C989 686 990 687 990 688

L990 688

L990 688

C989 688 988 687 987 686

Z

M935 687

C935 686 936 686 937 685

L939 684

L937 685

C936 686 936 687 935 687

L935 687

L935 687

Z

M178 677

L178 674

L179 675

C179 676 179 678 179 679

L178 681

L178 677

Z

M1306 678

L1306 677

L1307 678

L1307 679

L1307 680

L1306 680

L1306 678

Z

M1044 673

C1046 670 1049 668 1049 668

L1049 668

L1049 668

C1049 668 1047 671 1044 673

L1040 678

L1044 673

Z

M1085 670

L1084 668

L1086 669

C1087 670 1088 671 1088 672

L1088 672

L1088 672

C1087 672 1086 671 1085 670

Z

M954 668

C954 667 956 666 956 666

L956 666

L955 668

C954 669 952 670 952 670

L952 670

L954 668

Z

M208 661

L208 657

L209 659

C209 660 209 662 209 663

L208 666

L208 661

Z

M699 661

C700 661 702 661 703 661

L705 662

L701 662

L697 662

L699 661

Z

M977 659

L977 658

L978 659

L978 660

L978 661

L977 661

L977 659

Z

M1337 658

L1338 658

L1339 658

L1339 659

L1337 659

L1336 659

L1337 658

Z

M1346 658

L1347 658

L1348 658

L1348 659

L1346 659

L1345 659

L1346 658

Z

M1209 655

L1210 655

L1211 655

L1211 656

L1209 656

L1208 656

L1209 655

Z

M1218 655

L1219 655

L1220 655

L1220 656

L1218 656

L1217 656

L1218 655

Z

M976 645

L976 642

L977 643

C977 644 977 646 977 646

L976 648

L976 645

Z

M1184 644

L1182 642

L1184 644

C1186 645 1187 646 1187 647

L1187 647

L1187 647

C1186 647 1185 646 1184 644

Z

M263 642

L263 639

L264 640

C264 641 264 643 264 644

L263 646

L263 642

Z

M790 641

L789 640

L790 641

C791 642 792 642 792 643

L792 643

L792 643

C791 643 791 642 790 641

Z

M914 642

L915 642

L916 642

L916 643

L914 643

L913 643

L914 642

Z

M1314 634

L1314 633

L1315 634

L1315 635

L1315 636

L1314 636

L1314 634

Z

M547 632

C547 631 548 631 549 630

L551 629

L549 630

C548 631 548 632 547 632

L547 632

L547 632

Z

M481 624

L481 622

L482 623

C482 623 482 625 482 625

L481 627

L481 624

Z

M1293 617

C1295 615 1297 613 1297 613

L1297 613

L1294 617

C1291 619 1289 621 1289 621

L1289 621

L1293 617

Z

M523 611

C523 611 524 609 526 607

L530 605

L527 608

C525 610 523 611 523 611

L523 611

L523 611

Z

M922 609

C923 609 925 609 926 609

L928 610

L924 610

L920 610

L922 609

Z

M972 610

C972 609 973 609 974 608

L976 607

L974 608

C973 609 973 610 972 610

L972 610

L972 610

Z

M481 591

L481 590

L482 591

L482 592

L482 593

L481 593

L481 591

Z

M1319 587

L1319 586

L1320 587

C1321 587 1321 587 1321 587

L1321 588

L1320 588

L1318 588

L1319 587

Z

M1418 578

L1418 575

L1419 576

C1419 577 1419 579 1419 580

L1418 582

L1418 578

Z

M920 577

L920 574

L921 575

C921 576 921 578 921 579

L920 581

L920 577

Z

M587 577

L588 577

L589 577

L589 578

L587 578

L586 578

L587 577

Z

M597 577

L598 577

L599 577

L599 578

L597 578

L596 578

L597 577

Z

M1232 574

L1231 573

L1232 574

C1233 575 1234 575 1234 576

L1234 576

L1234 576

C1233 576 1233 575 1232 574

Z

M229 569

C232 566 235 563 235 563

L235 563

L230 569

C226 572 223 575 223 575

L223 575

L229 569

Z

M1086 564

L1086 562

L1087 563

C1087 563 1087 565 1087 565

L1086 567

L1086 564

Z

M968 555

L968 549

L969 552

C969 554 969 556 969 558

L968 562

L968 555

Z

M806 557

L806 556

L807 557

L807 558

L807 559

L806 559

L806 557

Z

M364 554

C364 554 366 554 366 554

L368 555

L365 555

L363 555

L364 554

Z

M382 554

C382 554 384 554 384 554

L386 555

L383 555

L381 555

L382 554

Z

M958 551

L958 548

L959 549

C959 550 959 552 959 553

L958 555

L958 551

Z

M868 549

C870 546 873 544 873 544

L873 544

L873 544

C873 544 871 547 868 549

L864 554

L868 549

Z

M60 551

L61 551

L62 551

L62 552

L60 552

L59 552

L60 551

Z

M1267 549

L1268 549

L1269 549

L1269 550

L1267 550

L1266 550

L1267 549

Z

M16 540

L15 539

L16 540

C17 541 18 541 18 542

L18 542

L18 542

C17 542 17 541 16 540

Z

M1035 541

C1035 540 1036 540 1037 539

L1039 538

L1037 539

C1036 540 1036 541 1035 541

L1035 541

L1035 541

Z

M437 538

L436 537

L437 538

C438 539 439 539 439 540

L439 540

L439 540

C438 540 438 539 437 538

Z

M1299 537

C1299 536 1301 535 1301 535

L1301 535

L1300 537

C1299 538 1297 539 1297 539

L1297 539

L1299 537

Z

M448 534

L447 532

L449 533

C450 534 451 535 451 536

L451 536

L451 536

C450 536 449 535 448 534

Z

M53 534

L54 534

L55 534

L55 535

L53 535

L52 535

L53 534

Z

M1413 533

C1413 532 1414 532 1415 531

L1417 530

L1415 531

C1414 532 1414 533 1413 533

L1413 533

L1413 533

Z

M545 528

C547 528 551 528 553 528

L558 529

L549 529

L541 529

L545 528

Z

M25 524

L24 522

L26 523

C27 524 28 525 28 526

L28 526

L28 526

C27 526 26 525 25 524

Z

M65 522

L66 522

L67 522

L67 523

L65 523

L64 523

L65 522

Z

M1028 521

C1028 520 1030 519 1030 519

L1030 519

L1029 521

C1028 522 1026 523 1026 523

L1026 523

L1028 521

Z

M1041 520

C1043 518 1045 516 1045 516

L1045 516

L1042 520

C1040 521 1038 523 1038 523

L1038 523

L1041 520

Z

M930 518

C930 518 932 518 932 518

L934 519

L931 519

L929 519

L930 518

Z

M937 518

L938 518

L939 518

L939 519

L937 519

L936 519

L937 518

Z

M1034 515

C1034 514 1036 513 1036 513

L1036 513

L1035 515

C1034 516 1032 517 1032 517

L1032 517

L1034 515

Z

M36 512

L35 511

L36 512

C37 513 38 513 38 514

L38 514

L38 514

C37 514 37 513 36 512

Z

M522 508

L520 506

L522 508

C524 509 525 510 525 511

L525 511

L525 511

C524 511 523 510 522 508

Z

M382 503

C384 503 386 503 387 503

L390 504

L385 504

L380 504

L382 503

Z

M149 500

C149 499 150 499 151 498

L153 497

L151 498

C150 499 150 500 149 500

L149 500

L149 500

Z

M289 491

C290 491 292 491 293 491

L295 492

L291 492

L287 492

L289 491

Z

M507 484

L507 477

L508 480

C508 482 508 486 508 488

L507 492

L507 484

Z

M1296 488

L1296 486

L1297 487

C1297 487 1297 489 1297 489

L1296 491

L1296 488

Z

M1383 484

L1383 483

L1383 482

L1384 482

L1384 483

L1385 485

L1385 485

C1384 485 1384 485 1383 484

Z

M521 476

L521 475

L522 476

L522 477

L522 478

L521 478

L521 476

Z

M790 472

C790 472 791 470 793 468

L797 466

L794 469

C792 471 790 472 790 472

L790 472

L790 472

Z

M1306 467

L1305 466

L1306 467

C1307 468 1308 468 1308 469

L1308 469

L1308 469

C1307 469 1307 468 1306 467

Z

M344 466

C344 465 346 464 346 464

L346 464

L345 466

C344 467 342 468 342 468

L342 468

L344 466

Z

M520 461

L519 458

L520 458

L521 458

L521 461

L521 463

L521 463

L520 463

L520 461

Z

M1280 458

C1281 458 1283 458 1284 458

L1286 459

L1282 459

L1278 459

L1280 458

Z

M355 455

C355 454 357 453 357 453

L357 453

L356 455

C355 456 353 457 353 457

L353 457

L355 455

Z

M1400 455

L1400 454

L1401 455

L1401 456

L1401 457

L1400 457

L1400 455

Z

M560 452

C561 452 563 452 563 452

L565 453

L562 453

L559 453

L560 452

Z

M569 452

C570 452 572 452 572 452

L574 453

L571 453

L568 453

L569 452

Z

M258 449

L258 448

L259 449

L259 450

L259 451

L258 451

L258 449

Z

M1398 440

L1397 439

L1398 440

C1399 441 1400 441 1400 442

L1400 442

L1400 442

C1399 442 1399 441 1398 440

Z

M1463 435

C1463 435 1464 433 1466 431

L1470 429

L1467 432

C1465 434 1463 435 1463 435

L1463 435

L1463 435

Z

M614 430

C616 428 618 426 618 426

L618 426

L615 430

C612 432 610 434 610 434

L610 434

L614 430

Z

M1485 432

L1486 432

L1487 432

L1487 433

L1485 433

L1484 433

L1485 432

Z

M257 424

L257 421

L258 422

C258 423 258 425 258 426

L257 428

L257 424

Z

M33 420

C33 419 34 419 35 418

L37 417

L35 418

C34 419 34 420 33 420

L33 420

L33 420

Z

M508 417

C508 416 510 415 510 415

L510 415

L509 417

C508 418 506 419 506 419

L506 419

L508 417

Z

M611 406

C613 403 616 401 616 401

L616 401

L616 401

C616 401 614 404 611 406

L607 411

L611 406

Z

M519 406

C519 405 521 404 521 404

L521 404

L520 406

C519 407 517 408 517 408

L517 408

L519 406

Z

M154 407

C154 406 155 406 156 405

L158 404

L156 405

C155 406 155 407 154 407

L154 407

L154 407

Z

M348 393

C349 393 351 393 352 393

L354 394

L350 394

L346 394

L348 393

Z

M737 391

L736 389

L738 390

C739 391 740 392 740 393

L740 393

L740 393

C739 393 738 392 737 391

Z

M543 387

L543 386

L544 387

L544 388

L544 389

L543 389

L543 387

Z

M457 381

L458 381

L459 381

L459 382

L457 382

L456 382

L457 381

Z

M472 381

L473 381

L474 381

L474 382

L472 382

L471 382

L472 381

Z

M793 377

C795 375 797 373 797 373

L797 373

L794 377

C792 378 790 380 790 380

L790 380

L793 377

Z

M223 376

C223 375 224 375 225 374

L227 373

L225 374

C224 375 224 376 223 376

L223 376

L223 376

Z

M644 369

L644 367

L645 368

C645 368 645 370 645 370

L644 372

L644 369

Z

M728 360

L727 359

L728 360

L729 361

L729 362

L728 362

L728 360

Z

M55 345

L55 344

L56 345

L56 346

L56 347

L55 347

L55 345

Z

M693 333

L692 332

L693 333

C694 334 695 334 695 335

L695 335

L695 335

C694 335 694 334 693 333

Z

M994 333

L994 330

L995 331

C995 332 995 334 995 334

L994 336

L994 333

Z

M1097 329

L1096 327

L1098 328

C1099 329 1100 330 1100 331

L1100 331

L1100 331

C1099 331 1098 330 1097 329

Z

M601 327

L601 324

L602 325

C602 326 602 328 602 328

L601 330

L601 327

Z

M994 325

L994 322

L995 323

C995 324 995 326 995 327

L994 329

L994 325

Z

M55 324

L55 323

L56 324

L56 325

L56 326

L55 326

L55 324

Z

M721 322

C721 321 722 321 723 320

L725 319

L723 320

C722 321 722 322 721 322

L721 322

L721 322

Z

M86 318

L86 314

L87 316

C87 317 87 319 87 320

L86 322

L86 318

Z

M362 313

C364 311 366 309 366 309

L366 309

L363 313

C361 314 359 316 359 316

L359 316

L362 313

Z

M1090 309

L1090 308

L1091 309

L1091 310

L1091 311

L1090 311

L1090 309

Z

M1160 308

C1160 307 1161 307 1162 306

L1164 305

L1162 306

C1161 307 1161 308 1160 308

L1160 308

L1160 308

Z

M653 300

L653 297

L654 298

C654 299 654 301 654 301

L653 303

L653 300

Z

M1254 297

C1256 295 1258 293 1258 293

L1258 293

L1255 297

C1252 299 1250 301 1250 301

L1250 301

L1254 297

Z

M820 296

C820 295 822 294 822 294

L822 294

L821 296

C820 297 818 298 818 298

L818 298

L820 296

Z

M1090 296

L1090 295

L1091 296

L1091 297

L1091 298

L1090 298

L1090 296

Z

M1051 295

L1051 294

L1052 295

L1052 296

L1052 297

L1051 297

L1051 295

Z

M537 294

L537 293

L538 294

L538 295

L538 296

L537 296

L537 294

Z

M429 291

C429 290 430 290 431 289

L433 288

L431 289

C430 290 430 291 429 291

L429 291

L429 291

Z

M1341 288

C1341 287 1342 287 1343 286

L1345 285

L1343 286

C1342 287 1342 288 1341 288

L1341 288

L1341 288

Z

M1350 279

C1350 278 1351 278 1352 277

L1354 276

L1352 277

C1351 278 1351 279 1350 279

L1350 279

L1350 279

Z

M1442 262

C1445 259 1448 256 1448 256

L1448 256

L1443 262

C1439 265 1436 268 1436 268

L1436 268

L1442 262

Z

M487 261

C488 261 490 261 490 261

L492 262

L489 262

L486 262

L487 261

Z

M331 253

L331 246

L332 249

C332 251 332 254 332 256

L331 260

L331 253

Z

M597 254

C599 252 601 250 601 250

L601 250

L598 254

C596 255 594 257 594 257

L594 257

L597 254

Z

M233 254

C233 253 235 252 235 252

L235 252

L234 254

C233 255 231 256 231 256

L231 256

L233 254

Z

M170 250

C172 248 174 246 174 246

L174 246

L171 250

C168 252 166 254 166 254

L166 254

L170 250

Z

M498 253

C499 253 501 253 501 253

L503 254

L500 254

L497 254

L498 253

Z

M506 253

C507 253 509 253 509 253

L511 254

L508 254

L505 254

L506 253

Z

M255 243

C256 243 258 243 258 243

L260 244

L257 244

L254 244

L255 243

Z

M103 237

C103 237 104 235 106 233

L110 231

L107 234

C105 236 103 237 103 237

L103 237

L103 237

Z

M1180 236

C1180 236 1181 234 1183 232

L1187 230

L1184 233

C1182 235 1180 236 1180 236

L1180 236

L1180 236

Z

M397 233

L397 232

L398 233

L398 234

L398 235

L397 235

L397 233

Z

M982 231

L982 228

L983 229

C983 230 983 232 983 233

L982 235

L982 231

Z

M1076 228

C1076 227 1077 227 1078 226

L1080 225

L1078 226

C1077 227 1077 228 1076 228

L1076 228

L1076 228

Z

M655 226

C656 226 658 226 659 226

L661 227

L657 227

L654 227

L655 226

Z

M982 221

L982 218

L983 219

C983 220 983 222 983 223

L982 225

L982 221

Z

M719 215

L720 215

L721 215

L721 216

L719 216

L718 216

L719 215

Z

M875 212

C875 212 876 210 878 208

L882 206

L879 209

C877 211 875 212 875 212

L875 212

L875 212

Z

M274 209

C276 209 280 209 282 209

L286 210

L278 210

L270 210

L274 209

Z

M799 201

C800 201 802 201 802 201

L804 202

L801 202

L798 202

L799 201

Z

M917 191

L918 191

L919 191

L919 192

L917 192

L916 192

L917 191

Z

M357 186

L356 185

L357 186

C358 187 359 187 359 188

L359 188

L359 188

C358 188 358 187 357 186

Z

M804 186

C806 186 808 186 809 186

L812 187

L807 187

L802 187

L804 186

Z

M1432 179

L1432 175

L1433 177

C1433 178 1433 180 1433 181

L1432 184

L1432 179

Z

M837 175

C838 173 840 172 840 172

L840 172

L838 175

C837 176 835 177 835 177

L835 177

L837 175

Z

M380 172

L377 169

L380 172

C382 174 384 176 384 176

L384 176

L384 176

C384 176 382 174 380 172

Z

M1165 169

L1165 166

L1166 167

C1166 168 1166 170 1166 170

L1165 172

L1165 169

Z

M1238 169

C1238 168 1239 168 1240 167

L1242 166

L1240 167

C1239 168 1239 169 1238 169

L1238 169

L1238 169

Z

M1481 168

C1481 167 1482 167 1483 166

L1485 165

L1483 166

C1482 167 1482 168 1481 168

L1481 168

L1481 168

Z

M1486 164

C1486 164 1488 164 1488 164

L1490 165

L1487 165

L1485 165

L1486 164

Z

M1099 163

C1099 162 1100 162 1101 161

L1103 160

L1101 161

C1100 162 1100 163 1099 163

L1099 163

L1099 163

Z

M1133 158

L1134 158

L1135 158

L1135 159

L1133 159

L1132 159

L1133 158

Z

M298 151

L299 151

L300 151

L300 152

L298 152

L297 152

L298 151

Z

M1158 148

L1157 147

L1158 148

C1159 149 1160 149 1160 150

L1160 150

L1160 150

C1159 150 1159 149 1158 148

Z

M788 142

L788 139

L789 140

C789 141 789 143 789 144

L788 146

L788 142

Z

M1139 142

L1140 142

L1141 142

L1141 143

L1139 143

L1138 143

L1139 142

Z

M800 135

C800 134 802 133 802 133

L802 133

L801 135

C800 136 798 137 798 137

L798 137

L800 135

Z

M852 134

L852 131

L853 132

C853 133 853 135 853 135

L852 137

L852 134

Z

M847 117

L846 116

L847 117

C848 118 849 118 849 119

L849 119

L849 119

C848 119 848 118 847 117

Z

M1300 115

L1301 115

L1302 115

L1302 116

L1300 116

L1299 116

L1300 115

Z

M823 106

L823 102

L824 104

C824 105 824 107 824 108

L823 110

L823 106

Z

M818 105

L818 103

L819 104

C819 104 819 106 819 106

L818 108

L818 105

Z

M1359 104

C1360 104 1362 104 1362 104

L1364 105

L1361 105

L1358 105

L1359 104

Z

M808 81

L807 79

L809 80

C810 81 811 82 811 83

L811 83

L811 83

C810 83 809 82 808 81

Z

M812 75

L810 73

L812 75

C814 76 815 77 815 78

L815 78

L815 78

C814 78 813 77 812 75

Z

M765 59

C765 59 767 59 767 59

L769 60

L766 60

L764 60

L765 59

Z

" />

  <path fill="#fafafa" stroke="none" d="
" />

  <path fill="#fdfdfd" stroke="none" d="
" />

  <path fill="#ffffff" stroke="none" d="
" />

  <path fill="#ffffff" stroke="none" d="
" />

  <path fill="#ffffff" stroke="none" d="
" />

  <path fill="#ffffff" stroke="none" d="
" />

</svg>